<svg viewBox="-64 -64 640 640" height="100" width="100" id="Layer_1" enable-background="new 0 0 512 512" xmlns="http://www.w3.org/2000/svg">
<g>
	<path style="fill:#FF9800;" d="M256,144v60.768l48,32l48-32V144c0-61.76-50.24-112-112-112S128,82.24,128,144v192
		c0,8.8-7.168,16-16,16s-16-7.2-16-16v-80H0v80c0,61.76,50.24,112,112,112s112-50.24,112-112V144c0-8.832,7.168-16,16-16
		S256,135.168,256,144z"/>
	<path style="fill:#FF9800;" d="M384,256v80c0,8.8-7.2,16-16,16s-16-7.2-16-16v-92.768l-39.136,26.08
		c-2.688,1.792-5.76,2.688-8.864,2.688s-6.176-0.896-8.864-2.688L256,243.232V336c0,61.76,50.24,112,112,112s112-50.24,112-112v-80
		H384z"/>
</g>
<g>
</g>
<g>
</g>
<g>
</g>
<g>
</g>
<g>
</g>
<g>
</g>
<g>
</g>
<g>
</g>
<g>
</g>
<g>
</g>
<g>
</g>
<g>
</g>
<g>
</g>
<g>
</g>
<g>
</g>
</svg>
