<svg viewBox="-64 -64 640 640" height="100" width="100" id="Layer_1" enable-background="new 0 0 512 512" xmlns="http://www.w3.org/2000/svg">
<path style="fill:#4CAF50;" d="M340.121,256l111.072-122.208c29.728-32.672,27.328-83.296-5.376-113.024
	c-32.704-29.664-83.296-27.264-112.992,5.376L199.993,172.288V80c0-44.192-35.808-80-80-80s-80,35.808-80,80v352
	c0,44.192,35.808,80,80,80s80-35.808,80-80v-92.256l132.8,146.08C348.601,503.2,370.265,512,392.025,512
	c19.2,0,38.464-6.88,53.792-20.8c32.672-29.728,35.104-80.32,5.376-112.992L340.121,256z"/>
<g>
</g>
<g>
</g>
<g>
</g>
<g>
</g>
<g>
</g>
<g>
</g>
<g>
</g>
<g>
</g>
<g>
</g>
<g>
</g>
<g>
</g>
<g>
</g>
<g>
</g>
<g>
</g>
<g>
</g>
</svg>
